<svg version="1.1" viewBox="0.0 0.0 665.0 550.0" fill="none" stroke="none" stroke-linecap="square" stroke-miterlimit="10" width="665" height="550" xmlns:xlink="http://www.w3.org/1999/xlink" xmlns="http://www.w3.org/2000/svg"><path fill="#ffffff" fill-opacity="0.0" d="M0 0L665.0 0L665.0 550.0L0 550.0L0 0Z" fill-rule="nonzero"/><path fill="#ffffff" d="M27.5 27.5L637.5 27.5L637.5 522.5L27.5 522.5L27.5 27.5Z" fill-rule="nonzero"/><path stroke="#cccccc" stroke-width="1.0" stroke-linecap="butt" d="M333.0 275.0C333.0 275.0 333.0 275.0 333.0 275.0C333.0 275.0 333.0 275.0 333.0 275.0C333.0 275.0 333.0 275.0 333.0 275.0C333.0 275.0 333.0 275.0 333.0 275.0" fill-rule="nonzero"/><path fill="#000000" d="M330.0625 268.35938Q330.0625 270.26562 329.40625 271.20312Q328.76562 272.125 327.375 272.125Q326.01562 272.125 325.35938 271.21875Q324.70312 270.3125 324.67188 268.5L324.67188 267.0625Q324.67188 265.17188 325.3125 264.26562Q325.96875 263.34375 327.35938 263.34375Q328.73438 263.34375 329.39062 264.23438Q330.04688 265.10938 330.0625 266.95312L330.0625 268.35938ZM328.96875 266.875Q328.96875 265.5 328.57812 264.875Q328.20312 264.23438 327.35938 264.23438Q326.53125 264.23438 326.14062 264.875Q325.76562 265.5 325.76562 266.79688L325.76562 268.53125Q325.76562 269.90625 326.15625 270.57812Q326.5625 271.23438 327.375 271.23438Q328.17188 271.23438 328.5625 270.60938Q328.95312 269.98438 328.96875 268.65625L328.96875 266.875Z" fill-rule="nonzero"/><path stroke="#cccccc" stroke-width="1.0" stroke-linecap="butt" d="M376.1 275.0C376.1 251.19653 356.80347 231.9 333.0 231.9C309.19653 231.9 289.9 251.19653 289.9 275.0C289.9 298.80347 309.19653 318.1 333.0 318.1C356.80347 318.1 376.1 298.80347 376.1 275.0" fill-rule="nonzero"/><path fill="#000000" d="M330.29688 228.9L324.70312 228.9L324.70312 228.11874L327.65625 224.8375Q328.3125 224.0875 328.5625 223.63437Q328.8125 223.16562 328.8125 222.66562Q328.8125 221.99374 328.40625 221.57187Q328.01562 221.13437 327.32812 221.13437Q326.53125 221.13437 326.07812 221.60312Q325.625 222.05624 325.625 222.88437L324.54688 222.88437Q324.54688 221.69687 325.29688 220.97812Q326.0625 220.24374 327.32812 220.24374Q328.53125 220.24374 329.21875 220.86874Q329.90625 221.49374 329.90625 222.54062Q329.90625 223.79062 328.29688 225.54062L326.01562 228.00937L330.29688 228.00937L330.29688 228.9Z" fill-rule="nonzero"/><path stroke="#cccccc" stroke-width="1.0" stroke-linecap="butt" d="M419.2 275.0C419.2 227.39305 380.60693 188.8 333.0 188.8C285.39307 188.8 246.8 227.39305 246.8 275.0C246.8 322.60693 285.39307 361.2 333.0 361.2C380.60693 361.2 419.2 322.60693 419.2 275.0" fill-rule="nonzero"/><path fill="#000000" d="M329.28125 182.94063L330.46875 182.94063L330.46875 183.81563L329.28125 183.81563L329.28125 185.8L328.20312 185.8L328.20312 183.81563L324.3125 183.81563L324.3125 183.175L328.125 177.26875L329.28125 177.26875L329.28125 182.94063ZM325.54688 182.94063L328.20312 182.94063L328.20312 178.75313L328.0625 178.9875L325.54688 182.94063Z" fill-rule="nonzero"/><path stroke="#cccccc" stroke-width="1.0" stroke-linecap="butt" d="M462.3 275.0C462.3 203.58958 404.41043 145.7 333.0 145.7C261.58957 145.7 203.7 203.58958 203.7 275.0C203.7 346.41043 261.58957 404.3 333.0 404.3C404.41043 404.3 462.3 346.41043 462.3 275.0" fill-rule="nonzero"/><path fill="#000000" d="M328.96875 134.16875L328.96875 135.075L328.76562 135.075Q327.5 135.10625 326.75 135.84062Q326.0 136.55937 325.875 137.87187Q326.5625 137.10625 327.71875 137.10625Q328.82812 137.10625 329.5 137.8875Q330.17188 138.66875 330.17188 139.91875Q330.17188 141.23125 329.45312 142.02812Q328.73438 142.825 327.51562 142.825Q326.29688 142.825 325.53125 141.8875Q324.78125 140.93437 324.78125 139.45L324.78125 139.04375Q324.78125 136.68437 325.78125 135.43437Q326.78125 134.18437 328.76562 134.16875L328.96875 134.16875ZM327.54688 138.0125Q326.98438 138.0125 326.51562 138.34062Q326.04688 138.66875 325.85938 139.18437L325.85938 139.575Q325.85938 140.6375 326.32812 141.27812Q326.8125 141.91875 327.51562 141.91875Q328.25 141.91875 328.67188 141.3875Q329.09375 140.84062 329.09375 139.96562Q329.09375 139.09062 328.67188 138.55937Q328.25 138.0125 327.54688 138.0125Z" fill-rule="nonzero"/><path stroke="#cccccc" stroke-width="1.0" stroke-linecap="butt" d="M505.4 275.0C505.4 179.7861 428.2139 102.6 333.0 102.6C237.7861 102.6 160.6 179.7861 160.6 275.0C160.6 370.2139 237.7861 447.4 333.0 447.4C428.2139 447.4 505.4 370.2139 505.4 275.0" fill-rule="nonzero"/><path fill="#000000" d="M329.89062 93.2875Q329.89062 93.92812 329.54688 94.42812Q329.20312 94.92812 328.64062 95.20937Q329.29688 95.49062 329.6875 96.05312Q330.07812 96.6 330.07812 97.30312Q330.07812 98.39687 329.32812 99.06875Q328.59375 99.725 327.375 99.725Q326.14062 99.725 325.39062 99.06875Q324.65625 98.39687 324.65625 97.30312Q324.65625 96.6 325.03125 96.05312Q325.40625 95.49062 326.07812 95.20937Q325.51562 94.92812 325.1875 94.42812Q324.85938 93.92812 324.85938 93.2875Q324.85938 92.20937 325.54688 91.58437Q326.23438 90.94375 327.375 90.94375Q328.5 90.94375 329.1875 91.58437Q329.89062 92.20937 329.89062 93.2875ZM329.0 97.27187Q329.0 96.55312 328.54688 96.11562Q328.09375 95.6625 327.35938 95.6625Q326.625 95.6625 326.17188 96.11562Q325.73438 96.55312 325.73438 97.2875Q325.73438 98.00625 326.17188 98.42812Q326.60938 98.83437 327.375 98.83437Q328.125 98.83437 328.5625 98.4125Q329.0 97.99062 329.0 97.27187ZM327.375 91.83437Q326.73438 91.83437 326.32812 92.24062Q325.9375 92.63125 325.9375 93.31875Q325.9375 93.95937 326.32812 94.36562Q326.71875 94.77187 327.35938 94.77187Q328.01562 94.77187 328.40625 94.36562Q328.79688 93.95937 328.79688 93.31875Q328.79688 92.6625 328.39062 92.25625Q327.98438 91.83437 327.375 91.83437Z" fill-rule="nonzero"/><path stroke="#cccccc" stroke-width="1.0" stroke-linecap="butt" d="M548.5 275.0C548.5 155.98264 452.01736 59.5 333.0 59.5C213.98264 59.5 117.5 155.98264 117.5 275.0C117.5 394.01736 213.98264 490.5 333.0 490.5C452.01736 490.5 548.5 394.01736 548.5 275.0" fill-rule="nonzero"/><path fill="#000000" d="M321.26562 56.5L320.1875 56.5L320.1875 49.28125L318.0 50.078125L318.0 49.09375L321.10938 47.921875L321.26562 47.921875L321.26562 56.5ZM330.0625 52.859375Q330.0625 54.765625 329.40625 55.703125Q328.76562 56.625 327.375 56.625Q326.01562 56.625 325.35938 55.71875Q324.70312 54.8125 324.67188 53.0L324.67188 51.5625Q324.67188 49.671875 325.3125 48.765625Q325.96875 47.84375 327.35938 47.84375Q328.73438 47.84375 329.39062 48.734375Q330.04688 49.609375 330.0625 51.453125L330.0625 52.859375ZM328.96875 51.375Q328.96875 50.0 328.57812 49.375Q328.20312 48.734375 327.35938 48.734375Q326.53125 48.734375 326.14062 49.375Q325.76562 50.0 325.76562 51.296875L325.76562 53.03125Q325.76562 54.40625 326.15625 55.078125Q326.5625 55.734375 327.375 55.734375Q328.17188 55.734375 328.5625 55.109375Q328.95312 54.484375 328.96875 53.15625L328.96875 51.375Z" fill-rule="nonzero"/><path stroke="#cccccc" stroke-width="1.0" stroke-linecap="butt" d="M333.0 275.0L333.0 60.0" fill-rule="nonzero"/><path fill="#000000" d="M313.89062 32.890625L311.14062 32.890625L311.14062 40.5L310.03125 40.5L310.03125 32.890625L307.28125 32.890625L307.28125 31.96875L313.89062 31.96875L313.89062 32.890625ZM317.45312 40.625Q316.15625 40.625 315.34375 39.78125Q314.54688 38.921875 314.54688 37.5L314.54688 37.3125Q314.54688 36.359375 314.90625 35.625Q315.26562 34.875 315.90625 34.46875Q316.5625 34.046875 317.3125 34.046875Q318.54688 34.046875 319.23438 34.859375Q319.92188 35.671875 319.92188 37.1875L319.92188 37.640625L315.625 37.640625Q315.65625 38.578125 316.17188 39.15625Q316.70312 39.734375 317.51562 39.734375Q318.07812 39.734375 318.46875 39.5Q318.875 39.265625 319.1875 38.875L319.84375 39.390625Q319.04688 40.625 317.45312 40.625ZM317.3125 34.9375Q316.65625 34.9375 316.20312 35.421875Q315.76562 35.890625 315.67188 36.75L318.84375 36.75L318.84375 36.671875Q318.79688 35.84375 318.39062 35.390625Q318.0 34.9375 317.3125 34.9375ZM323.35938 39.734375Q323.9375 39.734375 324.375 39.390625Q324.8125 39.03125 324.85938 38.5L325.89062 38.5Q325.85938 39.046875 325.5 39.546875Q325.15625 40.03125 324.57812 40.328125Q324.01562 40.625 323.35938 40.625Q322.0625 40.625 321.29688 39.765625Q320.54688 38.890625 320.54688 37.390625L320.54688 37.203125Q320.54688 36.28125 320.875 35.5625Q321.21875 34.84375 321.84375 34.453125Q322.48438 34.046875 323.35938 34.046875Q324.42188 34.046875 325.125 34.6875Q325.84375 35.3125 325.89062 36.34375L324.85938 36.34375Q324.8125 35.71875 324.39062 35.328125Q323.96875 34.9375 323.35938 34.9375Q322.53125 34.9375 322.07812 35.53125Q321.625 36.125 321.625 37.25L321.625 37.453125Q321.625 38.546875 322.07812 39.140625Q322.53125 39.734375 323.35938 39.734375ZM327.90625 34.921875Q328.625 34.046875 329.78125 34.046875Q331.79688 34.046875 331.8125 36.3125L331.8125 40.5L330.71875 40.5L330.71875 36.296875Q330.71875 35.625 330.40625 35.296875Q330.10938 34.96875 329.45312 34.96875Q328.92188 34.96875 328.51562 35.25Q328.125 35.53125 327.90625 35.984375L327.90625 40.5L326.82812 40.5L326.82812 31.5L327.90625 31.5L327.90625 34.921875ZM334.84375 34.15625L334.875 34.953125Q335.60938 34.046875 336.78125 34.046875Q338.79688 34.046875 338.8125 36.3125L338.8125 40.5L337.71875 40.5L337.71875 36.296875Q337.71875 35.625 337.40625 35.296875Q337.10938 34.96875 336.45312 34.96875Q335.92188 34.96875 335.51562 35.25Q335.125 35.53125 334.90625 35.984375L334.90625 40.5L333.82812 40.5L333.82812 34.15625L334.84375 34.15625ZM342.0 40.5L340.92188 40.5L340.92188 34.15625L342.0 34.15625L342.0 40.5ZM340.82812 32.484375Q340.82812 32.21875 340.98438 32.03125Q341.15625 31.84375 341.46875 31.84375Q341.78125 31.84375 341.9375 32.03125Q342.10938 32.21875 342.10938 32.484375Q342.10938 32.734375 341.9375 32.921875Q341.78125 33.09375 341.46875 33.09375Q341.15625 33.09375 340.98438 32.921875Q340.82812 32.734375 340.82812 32.484375ZM346.35938 39.734375Q346.9375 39.734375 347.375 39.390625Q347.8125 39.03125 347.85938 38.5L348.89062 38.5Q348.85938 39.046875 348.5 39.546875Q348.15625 40.03125 347.57812 40.328125Q347.01562 40.625 346.35938 40.625Q345.0625 40.625 344.29688 39.765625Q343.54688 38.890625 343.54688 37.390625L343.54688 37.203125Q343.54688 36.28125 343.875 35.5625Q344.21875 34.84375 344.84375 34.453125Q345.48438 34.046875 346.35938 34.046875Q347.42188 34.046875 348.125 34.6875Q348.84375 35.3125 348.89062 36.34375L347.85938 36.34375Q347.8125 35.71875 347.39062 35.328125Q346.96875 34.9375 346.35938 34.9375Q345.53125 34.9375 345.07812 35.53125Q344.625 36.125 344.625 37.25L344.625 37.453125Q344.625 38.546875 345.07812 39.140625Q345.53125 39.734375 346.35938 39.734375ZM353.73438 40.5Q353.64062 40.3125 353.57812 39.828125Q352.82812 40.625 351.78125 40.625Q350.84375 40.625 350.23438 40.09375Q349.64062 39.5625 349.64062 38.734375Q349.64062 37.75 350.39062 37.203125Q351.14062 36.65625 352.51562 36.65625L353.5625 36.65625L353.5625 36.15625Q353.5625 35.59375 353.21875 35.265625Q352.89062 34.921875 352.21875 34.921875Q351.64062 34.921875 351.25 35.21875Q350.85938 35.5 350.85938 35.921875L349.76562 35.921875Q349.76562 35.4375 350.09375 35.0Q350.4375 34.5625 351.01562 34.3125Q351.59375 34.046875 352.28125 34.046875Q353.39062 34.046875 354.0 34.59375Q354.625 35.140625 354.65625 36.09375L354.65625 39.015625Q354.65625 39.890625 354.875 40.40625L354.875 40.5L353.73438 40.5ZM351.9375 39.671875Q352.45312 39.671875 352.90625 39.40625Q353.35938 39.140625 353.5625 38.71875L353.5625 37.421875L352.71875 37.421875Q350.71875 37.421875 350.71875 38.59375Q350.71875 39.09375 351.0625 39.390625Q351.40625 39.671875 351.9375 39.671875ZM358.0 40.5L356.92188 40.5L356.92188 31.5L358.0 31.5L358.0 40.5Z" fill-rule="nonzero"/><path stroke="#cccccc" stroke-width="1.0" stroke-linecap="butt" d="M333.0 275.0L520.0 167.0" fill-rule="nonzero"/><path fill="#000000" d="M523.1094 157.15625L523.1094 160.5L521.9844 160.5L521.9844 151.96875L525.1406 151.96875Q526.53125 151.96875 527.3281 152.6875Q528.125 153.39062 528.125 154.57812Q528.125 155.8125 527.34375 156.48438Q526.5781 157.15625 525.125 157.15625L523.1094 157.15625ZM523.1094 156.23438L525.1406 156.23438Q526.0469 156.23438 526.5156 155.8125Q527.0 155.39062 527.0 154.59375Q527.0 153.82812 526.5156 153.375Q526.0469 152.90625 525.2031 152.89062L523.1094 152.89062L523.1094 156.23438ZM532.8906 155.125Q532.6406 155.09375 532.3594 155.09375Q531.28125 155.09375 530.90625 156.0L530.90625 160.5L529.8281 160.5L529.8281 154.15625L530.875 154.15625L530.8906 154.89062Q531.4219 154.04688 532.40625 154.04688Q532.71875 154.04688 532.8906 154.125L532.8906 155.125ZM533.53125 157.26562Q533.53125 156.34375 533.8906 155.59375Q534.2656 154.84375 534.9219 154.45312Q535.5781 154.04688 536.40625 154.04688Q537.7031 154.04688 538.5 154.9375Q539.3125 155.82812 539.3125 157.32812L539.3125 157.40625Q539.3125 158.32812 538.9531 159.0625Q538.59375 159.79688 537.9375 160.21875Q537.28125 160.625 536.4219 160.625Q535.1406 160.625 534.3281 159.73438Q533.53125 158.82812 533.53125 157.34375L533.53125 157.26562ZM534.625 157.40625Q534.625 158.45312 535.1094 159.09375Q535.6094 159.73438 536.4219 159.73438Q537.25 159.73438 537.7344 159.09375Q538.21875 158.4375 538.21875 157.26562Q538.21875 156.23438 537.71875 155.59375Q537.2344 154.9375 536.40625 154.9375Q535.6094 154.9375 535.1094 155.57812Q534.625 156.20312 534.625 157.40625ZM541.9375 154.15625L541.9375 161.23438Q541.9375 163.0625 540.28125 163.0625Q539.9219 163.0625 539.625 162.95312L539.625 162.09375Q539.8125 162.14062 540.1094 162.14062Q540.46875 162.14062 540.65625 161.9375Q540.8594 161.75 540.8594 161.25L540.8594 154.15625L541.9375 154.15625ZM540.75 152.48438Q540.75 152.21875 540.90625 152.03125Q541.0625 151.84375 541.375 151.84375Q541.6875 151.84375 541.84375 152.03125Q542.0156 152.21875 542.0156 152.48438Q542.0156 152.73438 541.84375 152.92188Q541.6875 153.09375 541.375 153.09375Q541.0625 153.09375 540.90625 152.92188Q540.75 152.73438 540.75 152.48438ZM546.4531 160.625Q545.15625 160.625 544.34375 159.78125Q543.5469 158.92188 543.5469 157.5L543.5469 157.3125Q543.5469 156.35938 543.90625 155.625Q544.2656 154.875 544.90625 154.46875Q545.5625 154.04688 546.3125 154.04688Q547.5469 154.04688 548.2344 154.85938Q548.9219 155.67188 548.9219 157.1875L548.9219 157.64062L544.625 157.64062Q544.65625 158.57812 545.1719 159.15625Q545.7031 159.73438 546.5156 159.73438Q547.0781 159.73438 547.46875 159.5Q547.875 159.26562 548.1875 158.875L548.84375 159.39062Q548.0469 160.625 546.4531 160.625ZM546.3125 154.9375Q545.65625 154.9375 545.2031 155.42188Q544.7656 155.89062 544.6719 156.75L547.84375 156.75L547.84375 156.67188Q547.7969 155.84375 547.3906 155.39062Q547.0 154.9375 546.3125 154.9375ZM552.3594 159.73438Q552.9375 159.73438 553.375 159.39062Q553.8125 159.03125 553.8594 158.5L554.8906 158.5Q554.8594 159.04688 554.5 159.54688Q554.15625 160.03125 553.5781 160.32812Q553.0156 160.625 552.3594 160.625Q551.0625 160.625 550.2969 159.76562Q549.5469 158.89062 549.5469 157.39062L549.5469 157.20312Q549.5469 156.28125 549.875 155.5625Q550.21875 154.84375 550.84375 154.45312Q551.4844 154.04688 552.3594 154.04688Q553.4219 154.04688 554.125 154.6875Q554.84375 155.3125 554.8906 156.34375L553.8594 156.34375Q553.8125 155.71875 553.3906 155.32812Q552.96875 154.9375 552.3594 154.9375Q551.53125 154.9375 551.0781 155.53125Q550.625 156.125 550.625 157.25L550.625 157.45312Q550.625 158.54688 551.0781 159.14062Q551.53125 159.73438 552.3594 159.73438ZM557.2969 152.625L557.2969 154.15625L558.46875 154.15625L558.46875 155.0L557.2969 155.0L557.2969 158.92188Q557.2969 159.3125 557.4531 159.5Q557.6094 159.6875 557.9844 159.6875Q558.1719 159.6875 558.5 159.625L558.5 160.5Q558.0781 160.625 557.6719 160.625Q556.9531 160.625 556.5781 160.1875Q556.2031 159.73438 556.2031 158.92188L556.2031 155.0L555.0469 155.0L555.0469 154.15625L556.2031 154.15625L556.2031 152.625L557.2969 152.625Z" fill-rule="nonzero"/><path stroke="#cccccc" stroke-width="1.0" stroke-linecap="butt" d="M333.0 275.0L520.0 383.0" fill-rule="nonzero"/><path fill="#000000" d="M520.6094 395.15625L520.6094 398.5L519.4844 398.5L519.4844 389.96875L522.6406 389.96875Q524.03125 389.96875 524.8281 390.6875Q525.625 391.39062 525.625 392.57812Q525.625 393.8125 524.84375 394.48438Q524.0781 395.15625 522.625 395.15625L520.6094 395.15625ZM520.6094 394.23438L522.6406 394.23438Q523.5469 394.23438 524.0156 393.8125Q524.5 393.39062 524.5 392.59375Q524.5 391.82812 524.0156 391.375Q523.5469 390.90625 522.7031 390.89062L520.6094 390.89062L520.6094 394.23438ZM530.3906 393.125Q530.1406 393.09375 529.8594 393.09375Q528.78125 393.09375 528.40625 394.0L528.40625 398.5L527.3281 398.5L527.3281 392.15625L528.375 392.15625L528.3906 392.89062Q528.9219 392.04688 529.90625 392.04688Q530.21875 392.04688 530.3906 392.125L530.3906 393.125ZM531.03125 395.26562Q531.03125 394.34375 531.3906 393.59375Q531.7656 392.84375 532.4219 392.45312Q533.0781 392.04688 533.90625 392.04688Q535.2031 392.04688 536.0 392.9375Q536.8125 393.82812 536.8125 395.32812L536.8125 395.40625Q536.8125 396.32812 536.4531 397.0625Q536.09375 397.79688 535.4375 398.21875Q534.78125 398.625 533.9219 398.625Q532.6406 398.625 531.8281 397.73438Q531.03125 396.82812 531.03125 395.34375L531.03125 395.26562ZM532.125 395.40625Q532.125 396.45312 532.6094 397.09375Q533.1094 397.73438 533.9219 397.73438Q534.75 397.73438 535.2344 397.09375Q535.71875 396.4375 535.71875 395.26562Q535.71875 394.23438 535.21875 393.59375Q534.7344 392.9375 533.90625 392.9375Q533.1094 392.9375 532.6094 393.57812Q532.125 394.20312 532.125 395.40625ZM538.0625 395.28125Q538.0625 393.8125 538.75 392.9375Q539.4375 392.04688 540.5625 392.04688Q541.6719 392.04688 542.3281 392.79688L542.3281 389.5L543.40625 389.5L543.40625 398.5L542.40625 398.5L542.3594 397.8125Q541.7031 398.625 540.5469 398.625Q539.4531 398.625 538.75 397.71875Q538.0625 396.8125 538.0625 395.35938L538.0625 395.28125ZM539.1406 395.40625Q539.1406 396.48438 539.5781 397.09375Q540.03125 397.70312 540.8125 397.70312Q541.84375 397.70312 542.3281 396.76562L542.3281 393.85938Q541.84375 392.96875 540.8281 392.96875Q540.03125 392.96875 539.5781 393.57812Q539.1406 394.1875 539.1406 395.40625ZM549.2344 397.875Q548.6094 398.625 547.375 398.625Q546.3594 398.625 545.8281 398.03125Q545.2969 397.4375 545.2969 396.28125L545.2969 392.15625L546.375 392.15625L546.375 396.25Q546.375 397.70312 547.5469 397.70312Q548.7969 397.70312 549.2031 396.76562L549.2031 392.15625L550.2969 392.15625L550.2969 398.5L549.2656 398.5L549.2344 397.875ZM554.8594 397.73438Q555.4375 397.73438 555.875 397.39062Q556.3125 397.03125 556.3594 396.5L557.3906 396.5Q557.3594 397.04688 557.0 397.54688Q556.65625 398.03125 556.0781 398.32812Q555.5156 398.625 554.8594 398.625Q553.5625 398.625 552.7969 397.76562Q552.0469 396.89062 552.0469 395.39062L552.0469 395.20312Q552.0469 394.28125 552.375 393.5625Q552.71875 392.84375 553.34375 392.45312Q553.9844 392.04688 554.8594 392.04688Q555.9219 392.04688 556.625 392.6875Q557.34375 393.3125 557.3906 394.34375L556.3594 394.34375Q556.3125 393.71875 555.8906 393.32812Q555.46875 392.9375 554.8594 392.9375Q554.03125 392.9375 553.5781 393.53125Q553.125 394.125 553.125 395.25L553.125 395.45312Q553.125 396.54688 553.5781 397.14062Q554.03125 397.73438 554.8594 397.73438ZM559.7969 390.625L559.7969 392.15625L560.96875 392.15625L560.96875 393.0L559.7969 393.0L559.7969 396.92188Q559.7969 397.3125 559.9531 397.5Q560.1094 397.6875 560.4844 397.6875Q560.6719 397.6875 561.0 397.625L561.0 398.5Q560.5781 398.625 560.1719 398.625Q559.4531 398.625 559.0781 398.1875Q558.7031 397.73438 558.7031 396.92188L558.7031 393.0L557.5469 393.0L557.5469 392.15625L558.7031 392.15625L558.7031 390.625L559.7969 390.625Z" fill-rule="nonzero"/><path stroke="#cccccc" stroke-width="1.0" stroke-linecap="butt" d="M333.0 275.0L333.0 491.0" fill-rule="nonzero"/><path fill="#000000" d="M324.39062 510.89062L321.64062 510.89062L321.64062 518.5L320.53125 518.5L320.53125 510.89062L317.78125 510.89062L317.78125 509.96875L324.39062 509.96875L324.39062 510.89062ZM327.95312 518.625Q326.65625 518.625 325.84375 517.78125Q325.04688 516.9219 325.04688 515.5L325.04688 515.3125Q325.04688 514.3594 325.40625 513.625Q325.76562 512.875 326.40625 512.46875Q327.0625 512.0469 327.8125 512.0469Q329.04688 512.0469 329.73438 512.8594Q330.42188 513.6719 330.42188 515.1875L330.42188 515.6406L326.125 515.6406Q326.15625 516.5781 326.67188 517.15625Q327.20312 517.7344 328.01562 517.7344Q328.57812 517.7344 328.96875 517.5Q329.375 517.2656 329.6875 516.875L330.34375 517.3906Q329.54688 518.625 327.95312 518.625ZM327.8125 512.9375Q327.15625 512.9375 326.70312 513.4219Q326.26562 513.8906 326.17188 514.75L329.34375 514.75L329.34375 514.6719Q329.29688 513.84375 328.89062 513.3906Q328.5 512.9375 327.8125 512.9375ZM335.23438 518.5Q335.14062 518.3125 335.07812 517.8281Q334.32812 518.625 333.28125 518.625Q332.34375 518.625 331.73438 518.09375Q331.14062 517.5625 331.14062 516.7344Q331.14062 515.75 331.89062 515.2031Q332.64062 514.65625 334.01562 514.65625L335.0625 514.65625L335.0625 514.15625Q335.0625 513.59375 334.71875 513.2656Q334.39062 512.9219 333.71875 512.9219Q333.14062 512.9219 332.75 513.21875Q332.35938 513.5 332.35938 513.9219L331.26562 513.9219Q331.26562 513.4375 331.59375 513.0Q331.9375 512.5625 332.51562 512.3125Q333.09375 512.0469 333.78125 512.0469Q334.89062 512.0469 335.5 512.59375Q336.125 513.1406 336.15625 514.09375L336.15625 517.0156Q336.15625 517.8906 336.375 518.40625L336.375 518.5L335.23438 518.5ZM333.4375 517.6719Q333.95312 517.6719 334.40625 517.40625Q334.85938 517.1406 335.0625 516.71875L335.0625 515.4219L334.21875 515.4219Q332.21875 515.4219 332.21875 516.59375Q332.21875 517.09375 332.5625 517.3906Q332.90625 517.6719 333.4375 517.6719ZM339.34375 512.15625L339.375 512.8594Q340.0625 512.0469 341.25 512.0469Q342.57812 512.0469 343.0625 513.0625Q343.375 512.6094 343.875 512.3281Q344.39062 512.0469 345.07812 512.0469Q347.17188 512.0469 347.20312 514.25L347.20312 518.5L346.125 518.5L346.125 514.3125Q346.125 513.6406 345.8125 513.3125Q345.5 512.96875 344.76562 512.96875Q344.15625 512.96875 343.75 513.3281Q343.35938 513.6875 343.29688 514.2969L343.29688 518.5L342.21875 518.5L342.21875 514.34375Q342.21875 512.96875 340.85938 512.96875Q339.79688 512.96875 339.40625 513.875L339.40625 518.5L338.3125 518.5L338.3125 512.15625L339.34375 512.15625Z" fill-rule="nonzero"/><path stroke="#cccccc" stroke-width="1.0" stroke-linecap="butt" d="M333.0 275.0L146.0 383.0" fill-rule="nonzero"/><path fill="#000000" d="M101.4375 389.96875L104.234375 396.92188L107.015625 389.96875L108.484375 389.96875L108.484375 398.5L107.359375 398.5L107.359375 395.17188L107.46875 391.59375L104.65625 398.5L103.796875 398.5L101.0 391.60938L101.109375 395.17188L101.109375 398.5L99.984375 398.5L99.984375 389.96875L101.4375 389.96875ZM113.734375 398.5Q113.640625 398.3125 113.578125 397.82812Q112.828125 398.625 111.78125 398.625Q110.84375 398.625 110.234375 398.09375Q109.640625 397.5625 109.640625 396.73438Q109.640625 395.75 110.390625 395.20312Q111.140625 394.65625 112.515625 394.65625L113.5625 394.65625L113.5625 394.15625Q113.5625 393.59375 113.21875 393.26562Q112.890625 392.92188 112.21875 392.92188Q111.640625 392.92188 111.25 393.21875Q110.859375 393.5 110.859375 393.92188L109.765625 393.92188Q109.765625 393.4375 110.09375 393.0Q110.4375 392.5625 111.015625 392.3125Q111.59375 392.04688 112.28125 392.04688Q113.390625 392.04688 114.0 392.59375Q114.625 393.14062 114.65625 394.09375L114.65625 397.01562Q114.65625 397.89062 114.875 398.40625L114.875 398.5L113.734375 398.5ZM111.9375 397.67188Q112.453125 397.67188 112.90625 397.40625Q113.359375 397.14062 113.5625 396.71875L113.5625 395.42188L112.71875 395.42188Q110.71875 395.42188 110.71875 396.59375Q110.71875 397.09375 111.0625 397.39062Q111.40625 397.67188 111.9375 397.67188ZM119.890625 393.125Q119.640625 393.09375 119.359375 393.09375Q118.28125 393.09375 117.90625 394.0L117.90625 398.5L116.828125 398.5L116.828125 392.15625L117.875 392.15625L117.890625 392.89062Q118.421875 392.04688 119.40625 392.04688Q119.71875 392.04688 119.890625 392.125L119.890625 393.125ZM122.59375 395.5625L121.90625 396.26562L121.90625 398.5L120.828125 398.5L120.828125 389.5L121.90625 389.5L121.90625 394.9375L122.484375 394.25L124.46875 392.15625L125.78125 392.15625L123.3125 394.8125L126.078125 398.5L124.796875 398.5L122.59375 395.5625ZM129.45312 398.625Q128.15625 398.625 127.34375 397.78125Q126.546875 396.92188 126.546875 395.5L126.546875 395.3125Q126.546875 394.35938 126.90625 393.625Q127.265625 392.875 127.90625 392.46875Q128.5625 392.04688 129.3125 392.04688Q130.54688 392.04688 131.23438 392.85938Q131.92188 393.67188 131.92188 395.1875L131.92188 395.64062L127.625 395.64062Q127.65625 396.57812 128.17188 397.15625Q128.70312 397.73438 129.51562 397.73438Q130.07812 397.73438 130.46875 397.5Q130.875 397.26562 131.1875 396.875L131.84375 397.39062Q131.04688 398.625 129.45312 398.625ZM129.3125 392.9375Q128.65625 392.9375 128.20312 393.42188Q127.765625 393.89062 127.671875 394.75L130.84375 394.75L130.84375 394.67188Q130.79688 393.84375 130.39062 393.39062Q130.0 392.9375 129.3125 392.9375ZM134.29688 390.625L134.29688 392.15625L135.46875 392.15625L135.46875 393.0L134.29688 393.0L134.29688 396.92188Q134.29688 397.3125 134.45312 397.5Q134.60938 397.6875 134.98438 397.6875Q135.17188 397.6875 135.5 397.625L135.5 398.5Q135.07812 398.625 134.67188 398.625Q133.95312 398.625 133.57812 398.1875Q133.20312 397.73438 133.20312 396.92188L133.20312 393.0L132.04688 393.0L132.04688 392.15625L133.20312 392.15625L133.20312 390.625L134.29688 390.625ZM138.0 398.5L136.92188 398.5L136.92188 392.15625L138.0 392.15625L138.0 398.5ZM136.82812 390.48438Q136.82812 390.21875 136.98438 390.03125Q137.15625 389.84375 137.46875 389.84375Q137.78125 389.84375 137.9375 390.03125Q138.10938 390.21875 138.10938 390.48438Q138.10938 390.73438 137.9375 390.92188Q137.78125 391.09375 137.46875 391.09375Q137.15625 391.09375 136.98438 390.92188Q136.82812 390.73438 136.82812 390.48438ZM140.84375 392.15625L140.875 392.95312Q141.60938 392.04688 142.78125 392.04688Q144.79688 392.04688 144.8125 394.3125L144.8125 398.5L143.71875 398.5L143.71875 394.29688Q143.71875 393.625 143.40625 393.29688Q143.10938 392.96875 142.45312 392.96875Q141.92188 392.96875 141.51562 393.25Q141.125 393.53125 140.90625 393.98438L140.90625 398.5L139.82812 398.5L139.82812 392.15625L140.84375 392.15625ZM146.5625 395.28125Q146.5625 393.79688 147.25 392.92188Q147.9375 392.04688 149.0625 392.04688Q150.21875 392.04688 150.875 392.85938L150.92188 392.15625L151.92188 392.15625L151.92188 398.34375Q151.92188 399.57812 151.1875 400.28125Q150.45312 401.0 149.23438 401.0Q148.54688 401.0 147.89062 400.70312Q147.23438 400.40625 146.89062 399.90625L147.45312 399.25Q148.14062 400.10938 149.15625 400.10938Q149.9375 400.10938 150.375 399.65625Q150.82812 399.21875 150.82812 398.40625L150.82812 397.85938Q150.17188 398.625 149.04688 398.625Q147.9375 398.625 147.25 397.73438Q146.5625 396.82812 146.5625 395.28125ZM147.65625 395.40625Q147.65625 396.46875 148.09375 397.09375Q148.53125 397.70312 149.32812 397.70312Q150.34375 397.70312 150.82812 396.76562L150.82812 393.875Q150.32812 392.96875 149.32812 392.96875Q148.54688 392.96875 148.09375 393.57812Q147.65625 394.1875 147.65625 395.40625Z" fill-rule="nonzero"/><path stroke="#cccccc" stroke-width="1.0" stroke-linecap="butt" d="M333.0 275.0L146.0 167.0" fill-rule="nonzero"/><path fill="#000000" d="M106.703125 158.26562L103.125 158.26562L102.328125 160.5L101.171875 160.5L104.421875 151.96875L105.40625 151.96875L108.671875 160.5L107.515625 160.5L106.703125 158.26562ZM103.46875 157.34375L106.375 157.34375L104.921875 153.35938L103.46875 157.34375ZM110.84375 154.15625L110.875 154.95312Q111.609375 154.04688 112.78125 154.04688Q114.796875 154.04688 114.8125 156.3125L114.8125 160.5L113.71875 160.5L113.71875 156.29688Q113.71875 155.625 113.40625 155.29688Q113.109375 154.96875 112.453125 154.96875Q111.921875 154.96875 111.515625 155.25Q111.125 155.53125 110.90625 155.98438L110.90625 160.5L109.828125 160.5L109.828125 154.15625L110.84375 154.15625ZM120.734375 160.5Q120.640625 160.3125 120.578125 159.82812Q119.828125 160.625 118.78125 160.625Q117.84375 160.625 117.234375 160.09375Q116.640625 159.5625 116.640625 158.73438Q116.640625 157.75 117.390625 157.20312Q118.140625 156.65625 119.515625 156.65625L120.5625 156.65625L120.5625 156.15625Q120.5625 155.59375 120.21875 155.26562Q119.890625 154.92188 119.21875 154.92188Q118.640625 154.92188 118.25 155.21875Q117.859375 155.5 117.859375 155.92188L116.765625 155.92188Q116.765625 155.4375 117.09375 155.0Q117.4375 154.5625 118.015625 154.3125Q118.59375 154.04688 119.28125 154.04688Q120.390625 154.04688 121.0 154.59375Q121.625 155.14062 121.65625 156.09375L121.65625 159.01562Q121.65625 159.89062 121.875 160.40625L121.875 160.5L120.734375 160.5ZM118.9375 159.67188Q119.453125 159.67188 119.90625 159.40625Q120.359375 159.14062 120.5625 158.71875L120.5625 157.42188L119.71875 157.42188Q117.71875 157.42188 117.71875 158.59375Q117.71875 159.09375 118.0625 159.39062Q118.40625 159.67188 118.9375 159.67188ZM125.0 160.5L123.921875 160.5L123.921875 151.5L125.0 151.5L125.0 160.5ZM128.89062 158.90625L130.375 154.15625L131.53125 154.15625L128.98438 161.48438Q128.39062 163.0625 127.109375 163.0625L126.890625 163.04688L126.5 162.96875L126.5 162.09375L126.78125 162.10938Q127.34375 162.10938 127.640625 161.89062Q127.953125 161.67188 128.15625 161.07812L128.39062 160.42188L126.125 154.15625L127.3125 154.15625L128.89062 158.90625ZM134.29688 152.625L134.29688 154.15625L135.46875 154.15625L135.46875 155.0L134.29688 155.0L134.29688 158.92188Q134.29688 159.3125 134.45312 159.5Q134.60938 159.6875 134.98438 159.6875Q135.17188 159.6875 135.5 159.625L135.5 160.5Q135.07812 160.625 134.67188 160.625Q133.95312 160.625 133.57812 160.1875Q133.20312 159.73438 133.20312 158.92188L133.20312 155.0L132.04688 155.0L132.04688 154.15625L133.20312 154.15625L133.20312 152.625L134.29688 152.625ZM138.0 160.5L136.92188 160.5L136.92188 154.15625L138.0 154.15625L138.0 160.5ZM136.82812 152.48438Q136.82812 152.21875 136.98438 152.03125Q137.15625 151.84375 137.46875 151.84375Q137.78125 151.84375 137.9375 152.03125Q138.10938 152.21875 138.10938 152.48438Q138.10938 152.73438 137.9375 152.92188Q137.78125 153.09375 137.46875 153.09375Q137.15625 153.09375 136.98438 152.92188Q136.82812 152.73438 136.82812 152.48438ZM142.35938 159.73438Q142.9375 159.73438 143.375 159.39062Q143.8125 159.03125 143.85938 158.5L144.89062 158.5Q144.85938 159.04688 144.5 159.54688Q144.15625 160.03125 143.57812 160.32812Q143.01562 160.625 142.35938 160.625Q141.0625 160.625 140.29688 159.76562Q139.54688 158.89062 139.54688 157.39062L139.54688 157.20312Q139.54688 156.28125 139.875 155.5625Q140.21875 154.84375 140.84375 154.45312Q141.48438 154.04688 142.35938 154.04688Q143.42188 154.04688 144.125 154.6875Q144.84375 155.3125 144.89062 156.34375L143.85938 156.34375Q143.8125 155.71875 143.39062 155.32812Q142.96875 154.9375 142.35938 154.9375Q141.53125 154.9375 141.07812 155.53125Q140.625 156.125 140.625 157.25L140.625 157.45312Q140.625 158.54688 141.07812 159.14062Q141.53125 159.73438 142.35938 159.73438ZM149.51562 158.8125Q149.51562 158.375 149.17188 158.14062Q148.84375 157.89062 148.01562 157.71875Q147.20312 157.54688 146.71875 157.29688Q146.23438 157.04688 146.0 156.71875Q145.78125 156.375 145.78125 155.90625Q145.78125 155.125 146.4375 154.59375Q147.09375 154.04688 148.125 154.04688Q149.20312 154.04688 149.85938 154.60938Q150.53125 155.15625 150.53125 156.01562L149.45312 156.01562Q149.45312 155.57812 149.0625 155.26562Q148.6875 154.9375 148.125 154.9375Q147.53125 154.9375 147.1875 155.20312Q146.85938 155.45312 146.85938 155.85938Q146.85938 156.25 147.17188 156.45312Q147.48438 156.65625 148.29688 156.84375Q149.10938 157.01562 149.60938 157.26562Q150.10938 157.51562 150.34375 157.875Q150.59375 158.23438 150.59375 158.73438Q150.59375 159.59375 149.90625 160.10938Q149.23438 160.625 148.15625 160.625Q147.39062 160.625 146.79688 160.35938Q146.21875 160.07812 145.89062 159.59375Q145.5625 159.10938 145.5625 158.54688L146.64062 158.54688Q146.67188 159.09375 147.07812 159.42188Q147.48438 159.73438 148.15625 159.73438Q148.76562 159.73438 149.14062 159.48438Q149.51562 159.23438 149.51562 158.8125Z" fill-rule="nonzero"/><path stroke="#cccccc" stroke-width="1.0" stroke-linecap="butt" d="M333.0 275.0L333.0 60.0" fill-rule="nonzero"/><path stroke="#9900ff" stroke-width="2.0" stroke-linecap="butt" d="M333.0 210.0L520.0 167.0L464.0 350.0L333.0 491.0L240.0 329.0L240.0 221.0Z" fill-rule="nonzero"/><path fill="#9900ff" d="M337.5 210.0C337.5 212.48528 335.4853 214.5 333.0 214.5C330.5147 214.5 328.5 212.48528 328.5 210.0C328.5 207.51472 330.5147 205.5 333.0 205.5C335.4853 205.5 337.5 207.51472 337.5 210.0Z" fill-rule="nonzero"/><path fill="#9900ff" d="M524.5 167.0C524.5 169.48528 522.4853 171.5 520.0 171.5C517.5147 171.5 515.5 169.48528 515.5 167.0C515.5 164.51472 517.5147 162.5 520.0 162.5C522.4853 162.5 524.5 164.51472 524.5 167.0Z" fill-rule="nonzero"/><path fill="#9900ff" d="M468.5 350.0C468.5 352.4853 466.4853 354.5 464.0 354.5C461.5147 354.5 459.5 352.4853 459.5 350.0C459.5 347.5147 461.5147 345.5 464.0 345.5C466.4853 345.5 468.5 347.5147 468.5 350.0Z" fill-rule="nonzero"/><path fill="#9900ff" d="M337.5 491.0C337.5 493.4853 335.4853 495.5 333.0 495.5C330.5147 495.5 328.5 493.4853 328.5 491.0C328.5 488.5147 330.5147 486.5 333.0 486.5C335.4853 486.5 337.5 488.5147 337.5 491.0Z" fill-rule="nonzero"/><path fill="#9900ff" d="M244.5 329.0C244.5 331.4853 242.48528 333.5 240.0 333.5C237.51472 333.5 235.5 331.4853 235.5 329.0C235.5 326.5147 237.51472 324.5 240.0 324.5C242.48528 324.5 244.5 326.5147 244.5 329.0Z" fill-rule="nonzero"/><path fill="#9900ff" d="M244.5 221.0C244.5 223.48528 242.48528 225.5 240.0 225.5C237.51472 225.5 235.5 223.48528 235.5 221.0C235.5 218.51472 237.51472 216.5 240.0 216.5C242.48528 216.5 244.5 218.51472 244.5 221.0Z" fill-rule="nonzero"/></svg>